<svg xmlns="http://www.w3.org/2000/svg" width="458" height="468" version="1"><path d="M0 234V0h458v468H0V234zm355 222c1.644-1.644 2-3.333 2-9.5 0-6.833-.178-7.5-2-7.5-1.1 0-2 .505-2 1.122 0 .766-.486.72-1.53-.147-1.163-.965-2.115-1.002-3.972-.156-2.74 1.249-4.034 4.91-3.079 8.715.82 3.265 4.893 5.282 7.051 3.49 1.295-1.074 1.53-.928 1.53.954 0 2.021-.409 2.19-4.5 1.866-4.719-.376-5.694.361-2.75 2.076 2.837 1.652 7.102 1.228 9.25-.92zm-6.582-7.353c-1.112-2.897-.01-6.147 2.082-6.147 1.618 0 2 .667 2 3.486 0 2.528-.482 3.58-1.753 3.824-.964.186-2.012-.338-2.33-1.163zm-282.435-1.829c-.344-3.596-1.144-6.308-2.026-6.866-2.36-1.493-5.568-1.091-8.096 1.015-1.914 1.594-2.04 1.973-.67 2 .93.018 1.97-.417 2.309-.967.34-.55 1.524-1 2.632-1 3.088 0 1.892 3.163-1.632 4.317-7.304 2.393-5.228 7.245 3.154 7.371l4.897.074-.568-5.944zM58 449.073c0-1.14.188-2.073.418-2.073.23 0 1.17-.288 2.088-.64 1.317-.506 1.599-.138 1.332 1.739-.434 3.055-3.838 3.92-3.838.974zm46 2.805c0-.766.486-.72 1.53.147 2.158 1.79 6.231-.226 7.05-3.491.956-3.805-.338-7.466-3.078-8.715-1.857-.846-2.81-.809-3.972.156-1.325 1.1-1.53.785-1.53-2.353 0-2.955-.368-3.622-2-3.622-1.86 0-2 .667-2 9.5s.14 9.5 2 9.5c1.1 0 2-.505 2-1.122zm.418-3.231c-1.112-2.897-.01-6.147 2.082-6.147 1.618 0 2 .667 2 3.486 0 2.528-.482 3.58-1.753 3.824-.964.186-2.012-.338-2.33-1.163zm55.53 2.676c2.263-1.584 2.289-1.714.473-2.363-1.056-.378-2.213-.233-2.57.322-1.287 2-3.851-.185-3.851-3.282s2.564-5.283 3.85-3.282c.358.555 1.533.694 2.613.308 1.834-.655 1.785-.818-.743-2.474-5.388-3.53-10.67.85-9.183 7.616 1.033 4.704 5.204 6.102 9.412 3.155zm43.852.477c.933-.933 1.2-.933 1.2 0 0 .66.9 1.2 2 1.2 1.86 0 2-.667 2-9.5s-.14-9.5-2-9.5c-1.64 0-2 .667-2 3.7 0 2.878-.267 3.433-1.2 2.5-.66-.66-1.785-1.2-2.5-1.2-2.33 0-5.3 3.922-5.3 7s2.97 7 5.3 7c.715 0 1.84-.54 2.5-1.2zm-3.382-3.153c-1.112-2.897-.01-6.147 2.082-6.147 1.618 0 2 .667 2 3.486 0 2.528-.482 3.58-1.753 3.824-.964.186-2.012-.338-2.33-1.163zm57.14 2.885c1.917-1.45 1.916-1.47-.058-1.606-1.1-.076-2.86-.203-3.912-.282-1.052-.08-2.102-.706-2.334-1.394-.292-.868.86-1.25 3.771-1.25 4.067 0 4.172-.082 3.529-2.75-1.93-8-11.009-6.557-11.009 1.75 0 6.251 5.238 9.144 10.014 5.532zm-6.308-7.782c.23-.687 1.017-1.25 1.75-1.25.733 0 1.52.563 1.75 1.25.248.744-.461 1.25-1.75 1.25s-1.998-.506-1.75-1.25zM298 447.5c0-4.222.348-5.5 1.5-5.5.825 0 1.5-.675 1.5-1.5s-.675-1.5-1.5-1.5c-2.306 0-1.778-1.694.733-2.35 1.693-.443 1.952-.865 1.073-1.744-1.659-1.659-6.413-.211-7.028 2.14-.281 1.075-.909 1.954-1.395 1.954-.485 0-.883.675-.883 1.5s.45 1.5 1 1.5 1 2.475 1 5.5c0 4.833.242 5.5 2 5.5s2-.667 2-5.5zm97.198.26c.233-4.05.7-5.317 2.052-5.574 1.497-.285 1.75.473 1.75 5.24 0 4.907.24 5.574 2 5.574 1.754 0 2-.667 2-5.429 0-6.324-1.902-9.063-5.644-8.124-2.085.523-2.356.244-2.356-2.428 0-2.352-.442-3.019-2-3.019-1.86 0-2 .667-2 9.5 0 8.748.154 9.5 1.948 9.5 1.644 0 1.995-.817 2.25-5.24zM422 231.5V38H33v387h389V231.5zm-339 169V377h47v47H83v-23.5zm97 0V377h47v47h-47v-23.5zm96 0V377h48v47h-48v-23.5zm97 0V377h48v47h-48v-23.5zM34 352v-24h48v48H34v-24zm97 0v-24h48v48h-48v-24zm97 0v-24h47v48h-47v-24zm97 0v-24h47v48h-47v-24zM83 303.5V280h47v47H83v-23.5zm97 0V280h47v47h-47v-23.5zm96 0V280h48v47h-48v-23.5zm97 0V280h48v47h-48v-23.5zM34 255v-24h48v48H34v-24zm97 0v-24h48v48h-48v-24zm97 0v-24h47v48h-47v-24zm97 0v-24h47v48h-47v-24zM83 206.5V183h47v47H83v-23.5zm97 0V183h47v47h-47v-23.5zm96 0V183h48v47h-48v-23.5zm97 0V183h48v47h-48v-23.5zm-339-48V135h48v47H34v-23.5zm97 0V135h48v47h-48v-23.5zm97 0V135h47v47h-47v-23.5zm97 0V135h47v47h-47v-23.5zm-242-48V87h47v47H83v-23.5zm97 0V87h47v47h-47v-23.5zm96 0V87h48v47h-48v-23.5zm97 0V87h48v47h-48v-23.5zm-339-48V39h48v47H34V62.5zm97 0V39h48v47h-48V62.5zm97 0V39h47v47h-47V62.5zm97 0V39h47v47h-47V62.5zm-305 337c0-6.949-.336-9.492-1.25-9.47-1.923.044-7.75 5.737-7.75 7.57 0 1.504.193 1.503 2.5-.008l2.5-1.638v6.523c0 5.856.204 6.523 2 6.523 1.86 0 2-.667 2-9.5zm422 0c0-6.949-.336-9.492-1.25-9.47-1.923.044-7.75 5.737-7.75 7.57 0 1.504.193 1.503 2.5-.008l2.5-1.638v6.523c0 5.856.204 6.523 2 6.523 1.86 0 2-.667 2-9.5zm-420-44c0-1.063-1.077-1.5-3.696-1.5h-3.696l3.127-3.25c4.253-4.42 5.038-7.977 2.352-10.663C18.939 338.939 17.1 338 16 338c-2.083 0-6 3.264-6 5 0 1.587 3.725 1.16 4.362-.5.316-.825 1.264-1.5 2.107-1.5 1.766 0 2.144 4.503.465 5.54-1.412.874-6.934 8.526-6.934 9.61 0 .468 2.7.85 6 .85 4.667 0 6-.333 6-1.5zm422 0c0-1.063-1.077-1.5-3.696-1.5h-3.696l3.127-3.25c4.253-4.42 5.038-7.977 2.352-10.663C440.939 338.939 439.1 338 438 338c-2.083 0-6 3.264-6 5 0 1.587 3.725 1.16 4.362-.5.316-.825 1.264-1.5 2.107-1.5 1.766 0 2.144 4.503.465 5.54-1.412.874-6.934 8.526-6.934 9.61 0 .468 2.7.85 6 .85 4.667 0 6-.333 6-1.5zM20 307c2.56-2.56 2.551-5.5-.022-7.303-1.786-1.25-1.844-1.563-.5-2.679 2.215-1.838 1.87-3.744-1.019-5.637-2.035-1.333-3.03-1.441-5-.544C10.772 292.06 10.095 295 12.5 295c.825 0 1.5-.45 1.5-1s.675-1 1.5-1c.833 0 1.5.889 1.5 2 0 1.1-.45 2-1 2-1.572 0-1.167 2.722.5 3.362 1.768.678 2.003 4.209.348 5.232-.633.391-1.695-.032-2.36-.941-1.351-1.848-3.065-2.146-3.965-.69C9.666 305.35 13.637 309 16 309c1.1 0 2.9-.9 4-2zm422 0c2.56-2.56 2.551-5.5-.022-7.303-1.786-1.25-1.844-1.563-.5-2.679 2.215-1.838 1.87-3.744-1.019-5.637-2.035-1.333-3.03-1.441-5-.544-2.687 1.224-3.364 4.163-.959 4.163.825 0 1.5-.45 1.5-1s.675-1 1.5-1c.833 0 1.5.889 1.5 2 0 1.1-.45 2-1 2-1.572 0-1.167 2.722.5 3.362 1.768.678 2.003 4.209.348 5.232-.633.391-1.695-.032-2.36-.941-1.351-1.848-3.065-2.146-3.965-.69-.857 1.386 3.114 5.037 5.477 5.037 1.1 0 2.9-.9 4-2zM20 263c0-1.1.45-2 1-2s1-.675 1-1.5-.45-1.5-1-1.5c-.556 0-1-2.667-1-6 0-5.054-.276-5.997-1.75-5.983-1.71.018-9.25 11.267-9.25 13.801 0 .684 1.474 1.182 3.5 1.182 2.833 0 3.5.381 3.5 2 0 1.333.667 2 2 2s2-.667 2-2zm-7.069-6.75c2.659-4.645 3.038-4.831 3.054-1.5.012 2.607-.388 3.25-2.02 3.25-1.653 0-1.847-.328-1.034-1.75zM442 263c0-1.1.45-2 1-2s1-.675 1-1.5-.45-1.5-1-1.5c-.556 0-1-2.667-1-6 0-5.054-.276-5.997-1.75-5.983-1.71.018-9.25 11.267-9.25 13.801 0 .684 1.474 1.182 3.5 1.182 2.833 0 3.5.381 3.5 2 0 1.333.667 2 2 2s2-.667 2-2zm-7.069-6.75c2.659-4.645 3.038-4.831 3.054-1.5.012 2.607-.388 3.25-2.02 3.25-1.653 0-1.847-.328-1.034-1.75zm-415.636-45.5c.923-.687 1.956-2.666 2.296-4.396.742-3.781-2.55-7.86-5.683-7.04-1.385.362-1.908-.024-1.908-1.408 0-1.512.724-1.906 3.5-1.906 2.444 0 3.5-.452 3.5-1.5 0-1.107-1.158-1.5-4.42-1.5-4.187 0-4.456.172-5.075 3.25-.36 1.788-.884 4.062-1.164 5.054-.437 1.547.036 1.76 3.325 1.5 3.376-.268 3.874-.021 4.169 2.061.473 3.345-1.58 5.161-3.263 2.885-1.43-1.935-3.135-2.266-4.05-.786-.82 1.328 3.072 5.036 5.287 5.036.995 0 2.564-.562 3.486-1.25zm422 0c.923-.687 1.956-2.666 2.296-4.396.742-3.781-2.55-7.86-5.683-7.04-1.385.362-1.908-.024-1.908-1.408 0-1.512.724-1.906 3.5-1.906 2.444 0 3.5-.452 3.5-1.5 0-1.107-1.158-1.5-4.42-1.5-4.187 0-4.456.172-5.075 3.25-.36 1.788-.884 4.062-1.164 5.054-.437 1.547.036 1.76 3.325 1.5 3.376-.268 3.874-.021 4.169 2.061.473 3.345-1.58 5.161-3.263 2.885-1.43-1.935-3.135-2.266-4.05-.786-.82 1.328 3.072 5.036 5.287 5.036.995 0 2.564-.562 3.486-1.25zM20 157c1.1-1.1 2-2.9 2-4 0-2.794-3.754-6.298-6.092-5.686-1.393.364-1.908-.025-1.908-1.439 0-2.305 2.874-3.696 3.97-1.922.424.684 1.556 1.087 2.516.895 1.613-.321 1.593-.538-.265-2.828-1.742-2.148-2.39-2.346-4.845-1.483-1.558.548-3.424 2.114-4.146 3.48-1.933 3.656-.943 10.988 1.782 13.194 2.85 2.308 4.519 2.258 6.988-.211zm-5.638-2.5c-.801-2.086.382-4.75 1.889-4.256 1.964.645 2.217 5.756.284 5.756-.879 0-1.857-.675-2.173-1.5zM442 157c1.1-1.1 2-2.9 2-4 0-2.794-3.754-6.298-6.092-5.686-1.393.364-1.908-.025-1.908-1.439 0-2.305 2.874-3.696 3.97-1.922.424.684 1.556 1.087 2.516.895 1.613-.321 1.593-.538-.265-2.828-1.742-2.148-2.39-2.346-4.845-1.483-1.558.548-3.424 2.114-4.146 3.48-1.933 3.656-.943 10.988 1.782 13.194 2.85 2.308 4.519 2.258 6.988-.211zm-5.638-2.5c-.801-2.086.382-4.75 1.889-4.256 1.964.645 2.217 5.756.284 5.756-.879 0-1.857-.675-2.173-1.5zM16.424 106.75c.374-2.337 1.781-6.13 3.128-8.428 1.346-2.298 2.448-4.66 2.448-5.25C22 92.428 19.602 92 16 92c-4.667 0-6 .333-6 1.5 0 1.073 1.094 1.5 3.847 1.5h3.847l-2.276 4.75c-1.251 2.613-2.568 6.213-2.926 8-.557 2.779-.368 3.25 1.3 3.25 1.524 0 2.102-.934 2.632-4.25zm422 0c.374-2.337 1.781-6.13 3.128-8.428 1.346-2.298 2.448-4.66 2.448-5.25 0-.644-2.398-1.072-6-1.072-4.667 0-6 .333-6 1.5 0 1.073 1.094 1.5 3.847 1.5h3.847l-2.276 4.75c-1.251 2.613-2.568 6.213-2.926 8-.557 2.779-.368 3.25 1.3 3.25 1.524 0 2.102-.934 2.632-4.25zM20 65c2.368-2.368 2.505-3.929.576-6.559-1.239-1.69-1.223-2.163.122-3.654 3.22-3.57-2.363-8.172-7.226-5.956-3.27 1.49-4.112 3.802-2.17 5.956 1.345 1.491 1.36 1.964.122 3.654C10.64 59.51 10 60.971 10 61.691 10 63.684 13.748 67 16 67c1.1 0 2.9-.9 4-2zm-5.606-2.417c-.828-2.157.323-4.844 1.857-4.333.687.23 1.249 1.467 1.249 2.75 0 2.74-2.227 3.876-3.106 1.583zM14 53c0-1.333.667-2 2-2s2 .667 2 2-.667 2-2 2-2-.667-2-2zm428 12c2.368-2.368 2.505-3.929.576-6.559-1.239-1.69-1.223-2.163.122-3.654 3.22-3.57-2.363-8.172-7.226-5.956-3.27 1.49-4.112 3.802-2.17 5.956 1.345 1.491 1.36 1.964.122 3.654-.783 1.068-1.424 2.53-1.424 3.25 0 1.993 3.748 5.309 6 5.309 1.1 0 2.9-.9 4-2zm-5.606-2.417c-.828-2.157.323-4.844 1.857-4.333.687.23 1.249 1.467 1.249 2.75 0 2.74-2.227 3.876-3.106 1.583zM436 53c0-1.333.667-2 2-2s2 .667 2 2-.667 2-2 2-2-.667-2-2zm-83-24c1.644-1.644 2-3.333 2-9.5 0-6.833-.178-7.5-2-7.5-1.1 0-2 .505-2 1.122 0 .766-.486.72-1.53-.147-1.163-.965-2.115-1.002-3.972-.156-2.74 1.249-4.034 4.91-3.079 8.715.82 3.265 4.893 5.282 7.051 3.49 1.295-1.074 1.53-.928 1.53.954 0 2.021-.409 2.19-4.5 1.866-4.719-.376-5.694.361-2.75 2.076 2.837 1.652 7.102 1.228 9.25-.92zm-6.582-7.353c-1.112-2.897-.01-6.147 2.082-6.147 1.618 0 2 .667 2 3.486 0 2.528-.482 3.58-1.753 3.824-.964.186-2.012-.338-2.33-1.163zM63.983 19.818c-.344-3.596-1.144-6.308-2.026-6.866-2.36-1.493-5.568-1.091-8.096 1.015-1.914 1.594-2.04 1.973-.67 2 .93.018 1.97-.417 2.309-.967.34-.55 1.524-1 2.632-1 3.088 0 1.892 3.163-1.632 4.317-7.304 2.393-5.228 7.245 3.154 7.371l4.897.074-.568-5.944zM56 22.073c0-1.14.188-2.073.418-2.073.23 0 1.17-.288 2.088-.64 1.317-.506 1.599-.138 1.332 1.739-.434 3.055-3.838 3.92-3.838.974zm47 2.805c0-.766.486-.72 1.53.147 1.163.965 2.115 1.002 3.972.156 4.542-2.07 4.542-10.292 0-12.362-1.857-.846-2.81-.809-3.972.156-1.325 1.1-1.53.785-1.53-2.353C103 7.667 102.632 7 101 7c-1.86 0-2 .667-2 9.5s.14 9.5 2 9.5c1.1 0 2-.505 2-1.122zm.418-3.231c-1.112-2.897-.01-6.147 2.082-6.147 1.618 0 2 .667 2 3.486 0 2.528-.482 3.58-1.753 3.824-.964.186-2.012-.338-2.33-1.163zm55.53 2.676c2.263-1.584 2.289-1.714.473-2.363-1.056-.378-2.213-.233-2.57.322-1.287 2-3.851-.185-3.851-3.282s2.564-5.283 3.85-3.282c.358.555 1.533.694 2.613.308 1.834-.655 1.785-.818-.743-2.474-5.388-3.53-10.67.85-9.183 7.616 1.033 4.704 5.204 6.102 9.412 3.155zm43.852.477c.933-.933 1.2-.933 1.2 0 0 .66.9 1.2 2 1.2 1.86 0 2-.667 2-9.5s-.14-9.5-2-9.5c-1.64 0-2 .667-2 3.7 0 2.878-.267 3.433-1.2 2.5-.66-.66-1.785-1.2-2.5-1.2-2.33 0-5.3 3.922-5.3 7s2.97 7 5.3 7c.715 0 1.84-.54 2.5-1.2zm-3.382-3.153c-1.112-2.897-.01-6.147 2.082-6.147 1.618 0 2 .667 2 3.486 0 2.528-.482 3.58-1.753 3.824-.964.186-2.012-.338-2.33-1.163zm57.14 2.885c1.917-1.45 1.916-1.47-.058-1.606-1.1-.076-2.86-.203-3.912-.282-1.052-.08-2.102-.706-2.334-1.394-.292-.868.86-1.25 3.771-1.25 4.067 0 4.172-.082 3.529-2.75-1.93-8-11.009-6.557-11.009 1.75 0 6.251 5.238 9.144 10.014 5.532zm-6.308-7.782c.23-.687 1.017-1.25 1.75-1.25.733 0 1.52.563 1.75 1.25.248.744-.461 1.25-1.75 1.25s-1.998-.506-1.75-1.25zM296 20.5c0-4.222.348-5.5 1.5-5.5.825 0 1.5-.675 1.5-1.5s-.675-1.5-1.5-1.5c-2.306 0-1.778-1.694.733-2.35 1.693-.443 1.952-.865 1.073-1.744-1.659-1.659-6.413-.211-7.028 2.14-.281 1.075-.909 1.954-1.395 1.954-.485 0-.883.675-.883 1.5s.45 1.5 1 1.5 1 2.475 1 5.5c0 4.833.242 5.5 2 5.5s2-.667 2-5.5zm97.198.26c.233-4.05.7-5.317 2.052-5.574 1.497-.285 1.75.473 1.75 5.24 0 4.907.24 5.574 2 5.574 1.754 0 2-.667 2-5.429 0-6.324-1.902-9.063-5.644-8.124-2.085.523-2.356.244-2.356-2.428C393 7.667 392.558 7 391 7c-1.86 0-2 .667-2 9.5 0 8.748.154 9.5 1.948 9.5 1.644 0 1.995-.817 2.25-5.24z" fill="#fdfdfd"/><path d="M345.75 456.92c-2.944-1.715-1.969-2.452 2.75-2.076 4.091.325 4.5.155 4.5-1.866 0-1.882-.235-2.028-1.53-.953-2.158 1.79-6.231-.226-7.05-3.491-.956-3.805.338-7.466 3.078-8.715 1.857-.846 2.81-.809 3.972.156 1.044.867 1.53.913 1.53.147 0-.617.9-1.122 2-1.122 1.822 0 2 .667 2 7.5 0 6.167-.356 7.856-2 9.5-2.148 2.148-6.413 2.572-9.25.92zm6.75-10.934c0-2.82-.382-3.486-2-3.486-1.332 0-2.11.776-2.33 2.323-.475 3.362.564 5.375 2.577 4.987 1.27-.245 1.753-1.296 1.753-3.824zm-297.121 5.25c-2.408-2.408-1.325-4.462 3.121-5.919 3.524-1.154 4.72-4.317 1.632-4.317-1.108 0-2.292.45-2.632 1-.34.55-1.379.985-2.309.967-1.37-.027-1.244-.406.67-2 2.528-2.106 5.735-2.508 8.096-1.015.882.558 1.682 3.27 2.026 6.866l.568 5.944-4.897-.074c-2.735-.041-5.505-.682-6.275-1.452zm6.459-3.137c.267-1.877-.015-2.245-1.332-1.74-.918.353-1.858.641-2.088.641-.23 0-.418.933-.418 2.073 0 2.946 3.404 2.081 3.838-.974zM100 443.5c0-8.833.14-9.5 2-9.5 1.632 0 2 .667 2 3.622 0 3.138.205 3.453 1.53 2.353 1.163-.965 2.115-1.002 3.972-.156 2.74 1.249 4.034 4.91 3.079 8.715-.82 3.265-4.893 5.282-7.051 3.49-1.044-.866-1.53-.912-1.53-.146 0 .617-.9 1.122-2 1.122-1.86 0-2-.667-2-9.5zm8.5 2.486c0-2.82-.382-3.486-2-3.486-1.332 0-2.11.776-2.33 2.323-.475 3.362.564 5.375 2.577 4.987 1.27-.245 1.753-1.296 1.753-3.824zm44.328 5.978c-2.204-1.286-3.163-5.952-1.905-9.262 1.336-3.514 5.253-4.472 8.797-2.15 2.528 1.656 2.577 1.819.743 2.474-1.08.386-2.255.247-2.612-.308-1.287-2-3.851.185-3.851 3.282s2.564 5.283 3.85 3.282c.358-.555 1.515-.7 2.571-.322 1.816.649 1.79.78-.472 2.363-2.698 1.89-4.676 2.068-7.12.64zM198 451c-1.111-1.111-2-3.333-2-5 0-3.078 2.97-7 5.3-7 .715 0 1.84.54 2.5 1.2.933.933 1.2.378 1.2-2.5 0-3.033.36-3.7 2-3.7 1.86 0 2 .667 2 9.5s-.14 9.5-2 9.5c-1.1 0-2-.54-2-1.2 0-.933-.267-.933-1.2 0-1.73 1.73-3.517 1.483-5.8-.8zm6.5-5.014c0-2.82-.382-3.486-2-3.486-1.332 0-2.11.776-2.33 2.323-.475 3.362.564 5.375 2.577 4.987 1.27-.245 1.753-1.296 1.753-3.824zm44.964 5.611c-2.672-1.954-2.672-9.24 0-11.194 3.77-2.757 7.92-1 9.09 3.847.643 2.668.538 2.75-3.529 2.75-2.911 0-4.063.382-3.77 1.25.23.688 1.28 1.315 2.333 1.394 1.051.079 2.812.206 3.912.282 1.974.136 1.975.157.059 1.606-2.447 1.85-5.619 1.876-8.095.065zm5.286-7.847c-.23-.687-1.017-1.25-1.75-1.25-.733 0-1.52.563-1.75 1.25-.248.744.461 1.25 1.75 1.25s1.998-.506 1.75-1.25zM294 447.5c0-3.025-.45-5.5-1-5.5s-1-.675-1-1.5.398-1.5.883-1.5c.486 0 1.114-.88 1.395-1.954.615-2.351 5.37-3.799 7.028-2.14.88.88.62 1.3-1.073 1.743-2.51.657-3.039 2.351-.733 2.351.825 0 1.5.675 1.5 1.5s-.675 1.5-1.5 1.5c-1.152 0-1.5 1.278-1.5 5.5 0 4.833-.242 5.5-2 5.5s-2-.667-2-5.5zm97-4c0-8.833.14-9.5 2-9.5 1.558 0 2 .667 2 3.02 0 2.67.271 2.95 2.356 2.427 3.742-.94 5.644 1.8 5.644 8.124 0 4.762-.246 5.429-2 5.429-1.76 0-2-.667-2-5.573 0-4.768-.253-5.526-1.75-5.24-1.353.256-1.819 1.522-2.052 5.572-.255 4.424-.606 5.241-2.25 5.241-1.794 0-1.948-.752-1.948-9.5zm-358-212V38h389v387H33V231.5zm97 169V377H83v47h47v-23.5zm97 0V377h-47v47h47v-23.5zm97 0V377h-48v47h48v-23.5zm97 0V377h-48v47h48v-23.5zM82 352v-24H34v48h48v-24zm97 0v-24h-48v48h48v-24zm96 0v-24h-47v48h47v-24zm97 0v-24h-47v48h47v-24zm-242-48.5V280H83v47h47v-23.5zm97 0V280h-47v47h47v-23.5zm97 0V280h-48v47h48v-23.5zm97 0V280h-48v47h48v-23.5zM82 255v-24H34v48h48v-24zm97 0v-24h-48v48h48v-24zm96 0v-24h-47v48h47v-24zm97 0v-24h-47v48h47v-24zm-242-48.5V183H83v47h47v-23.5zm97 0V183h-47v47h47v-23.5zm97 0V183h-48v47h48v-23.5zm97 0V183h-48v47h48v-23.5zm-339-48V135H34v47h48v-23.5zm97 0V135h-48v47h48v-23.5zm96 0V135h-47v47h47v-23.5zm97 0V135h-47v47h47v-23.5zm-242-48V87H83v47h47v-23.5zm97 0V87h-47v47h47v-23.5zm97 0V87h-48v47h48v-23.5zm97 0V87h-48v47h48v-23.5zm-339-48V39H34v47h48V62.5zm97 0V39h-48v47h48V62.5zm96 0V39h-47v47h47V62.5zm97 0V39h-47v47h47V62.5zM16 402.477v-6.523l-2.5 1.638c-2.307 1.511-2.5 1.512-2.5.009 0-1.834 5.827-7.527 7.75-7.572.914-.021 1.25 2.522 1.25 9.471 0 8.833-.14 9.5-2 9.5-1.796 0-2-.667-2-6.523zm422 0v-6.523l-2.5 1.638c-2.307 1.511-2.5 1.512-2.5.009 0-1.834 5.827-7.527 7.75-7.572.914-.021 1.25 2.522 1.25 9.471 0 8.833-.14 9.5-2 9.5-1.796 0-2-.667-2-6.523zM10 356.15c0-1.084 5.522-8.736 6.934-9.61 1.68-1.037 1.301-5.54-.465-5.54-.843 0-1.79.675-2.107 1.5-.637 1.66-4.362 2.087-4.362.5 0-1.736 3.917-5 6-5 1.1 0 2.939.939 4.087 2.087 2.686 2.686 1.901 6.242-2.352 10.663L14.608 354h3.696c2.619 0 3.696.437 3.696 1.5 0 1.167-1.333 1.5-6 1.5-3.3 0-6-.382-6-.85zm422 0c0-1.084 5.522-8.736 6.934-9.61 1.68-1.037 1.301-5.54-.465-5.54-.843 0-1.79.675-2.107 1.5-.637 1.66-4.362 2.087-4.362.5 0-1.736 3.917-5 6-5 1.1 0 2.939.939 4.087 2.087 2.686 2.686 1.901 6.242-2.352 10.663l-3.127 3.25h3.696c2.619 0 3.696.437 3.696 1.5 0 1.167-1.333 1.5-6 1.5-3.3 0-6-.382-6-.85zM11.964 306.964C9.96 304.96 10.077 303 12.199 303c.594 0 1.624.744 2.29 1.653.664.909 1.726 1.332 2.36.94 1.654-1.022 1.42-4.553-.349-5.231-1.667-.64-2.072-3.362-.5-3.362.55 0 1-.9 1-2 0-1.111-.667-2-1.5-2-.825 0-1.5.45-1.5 1s-.675 1-1.5 1c-2.405 0-1.728-2.939.959-4.163 1.97-.897 2.965-.789 5 .544 2.89 1.893 3.234 3.799 1.02 5.637-1.345 1.116-1.287 1.429.5 2.68 2.572 1.801 2.581 4.742.021 7.302-2.557 2.557-5.456 2.544-8.036-.036zm422 0c-2.003-2.003-1.887-3.964.235-3.964.594 0 1.624.744 2.289 1.653s1.727 1.332 2.36.94c1.655-1.022 1.42-4.553-.348-5.231-1.667-.64-2.072-3.362-.5-3.362.55 0 1-.9 1-2 0-1.111-.667-2-1.5-2-.825 0-1.5.45-1.5 1s-.675 1-1.5 1c-2.405 0-1.728-2.939.959-4.163 1.97-.897 2.965-.789 5 .544 2.89 1.893 3.234 3.799 1.02 5.637-1.345 1.116-1.287 1.429.5 2.68 2.572 1.801 2.58 4.742.021 7.302-2.557 2.557-5.456 2.544-8.036-.036zM16 263c0-1.619-.667-2-3.5-2-2.026 0-3.5-.498-3.5-1.182 0-2.534 7.54-13.783 9.25-13.8 1.474-.015 1.75.928 1.75 5.982 0 3.333.444 6 1 6 .55 0 1 .675 1 1.5s-.45 1.5-1 1.5-1 .9-1 2c0 1.333-.667 2-2 2s-2-.667-2-2zm-.015-8.25c-.016-3.331-.395-3.145-3.054 1.5-.813 1.422-.62 1.75 1.034 1.75 1.632 0 2.032-.643 2.02-3.25zM438 263c0-1.619-.667-2-3.5-2-2.026 0-3.5-.498-3.5-1.182 0-2.534 7.54-13.783 9.25-13.8 1.474-.015 1.75.928 1.75 5.982 0 3.333.444 6 1 6 .55 0 1 .675 1 1.5s-.45 1.5-1 1.5-1 .9-1 2c0 1.333-.667 2-2 2s-2-.667-2-2zm-.015-8.25c-.016-3.331-.395-3.145-3.054 1.5-.813 1.422-.62 1.75 1.034 1.75 1.632 0 2.032-.643 2.02-3.25zM11.964 209.964C9.96 207.96 10.077 206 12.199 206c.594 0 1.662.788 2.373 1.75 1.682 2.276 3.736.46 3.263-2.885-.295-2.082-.793-2.329-4.17-2.061-3.288.26-3.761.047-3.324-1.5.28-.992.804-3.266 1.164-5.054.62-3.078.888-3.25 5.074-3.25 3.263 0 4.421.393 4.421 1.5 0 1.048-1.056 1.5-3.5 1.5-2.776 0-3.5.394-3.5 1.906 0 1.384.523 1.77 1.908 1.408 3.133-.82 6.425 3.259 5.683 7.04-1.089 5.543-5.893 7.344-9.627 3.61zm422 0c-2.003-2.003-1.887-3.964.235-3.964.594 0 1.662.788 2.373 1.75 1.682 2.276 3.736.46 3.263-2.885-.295-2.082-.793-2.329-4.17-2.061-3.288.26-3.761.047-3.324-1.5.28-.992.804-3.266 1.164-5.054.62-3.078.888-3.25 5.074-3.25 3.263 0 4.421.393 4.421 1.5 0 1.048-1.056 1.5-3.5 1.5-2.776 0-3.5.394-3.5 1.906 0 1.384.523 1.77 1.908 1.408 3.133-.82 6.425 3.259 5.683 7.04-1.089 5.543-5.893 7.344-9.627 3.61zM13.012 157.21c-2.725-2.206-3.715-9.538-1.782-13.194.722-1.366 2.588-2.932 4.146-3.48 2.454-.863 3.103-.665 4.845 1.483 1.858 2.29 1.878 2.507.265 2.828-.96.192-2.092-.211-2.515-.895-1.097-1.774-3.971-.383-3.971 1.922 0 1.414.515 1.803 1.908 1.439C18.246 146.702 22 150.206 22 153c0 2.294-3.33 6-5.39 6-.763 0-2.383-.805-3.598-1.79zm4.804-3.884c-.362-3.061-2.519-4.265-3.422-1.91-.854 2.225.247 4.583 2.141 4.583 1.144 0 1.508-.759 1.281-2.673zm417.196 3.884c-2.725-2.206-3.715-9.538-1.782-13.194.722-1.366 2.588-2.932 4.146-3.48 2.454-.863 3.103-.665 4.845 1.483 1.858 2.29 1.878 2.507.265 2.828-.96.192-2.092-.211-2.515-.895-1.097-1.774-3.971-.383-3.971 1.922 0 1.414.515 1.803 1.908 1.439 2.338-.612 6.092 2.892 6.092 5.686 0 2.294-3.33 6-5.39 6-.763 0-2.383-.805-3.598-1.79zm4.804-3.884c-.362-3.061-2.519-4.265-3.422-1.91-.854 2.225.247 4.583 2.141 4.583 1.144 0 1.508-.759 1.281-2.673zM12.492 107.75c.358-1.787 1.675-5.387 2.926-8L17.694 95h-3.847C11.094 95 10 94.573 10 93.5c0-1.167 1.333-1.5 6-1.5 3.602 0 6 .428 6 1.072 0 .59-1.102 2.952-2.448 5.25-1.347 2.298-2.754 6.09-3.128 8.428-.53 3.316-1.108 4.25-2.631 4.25-1.669 0-1.858-.471-1.301-3.25zm422 0c.358-1.787 1.675-5.387 2.926-8l2.276-4.75h-3.847c-2.753 0-3.847-.427-3.847-1.5 0-1.167 1.333-1.5 6-1.5 3.602 0 6 .428 6 1.072 0 .59-1.102 2.952-2.448 5.25-1.347 2.298-2.754 6.09-3.128 8.428-.53 3.316-1.108 4.25-2.631 4.25-1.669 0-1.858-.471-1.301-3.25zM12 65c-2.368-2.368-2.505-3.929-.576-6.559 1.239-1.69 1.223-2.163-.122-3.654-1.942-2.154-1.1-4.466 2.17-5.956 4.863-2.216 10.446 2.386 7.226 5.956-1.345 1.491-1.36 1.964-.122 3.654.783 1.068 1.424 2.53 1.424 3.25C22 63.684 18.252 67 16 67c-1.1 0-2.9-.9-4-2zm5.5-4c0-2.74-2.227-3.876-3.106-1.583-.828 2.157.323 4.844 1.857 4.333.687-.23 1.249-1.467 1.249-2.75zm.5-8c0-1.333-.667-2-2-2s-2 .667-2 2 .667 2 2 2 2-.667 2-2zm416 12c-2.368-2.368-2.505-3.929-.576-6.559 1.239-1.69 1.223-2.163-.122-3.654-3.22-3.57 2.363-8.172 7.226-5.956 3.27 1.49 4.112 3.802 2.17 5.956-1.345 1.491-1.36 1.964-.122 3.654.783 1.068 1.424 2.53 1.424 3.25 0 1.993-3.748 5.309-6 5.309-1.1 0-2.9-.9-4-2zm5.5-4c0-2.74-2.227-3.876-3.106-1.583-.828 2.157.323 4.844 1.857 4.333.687-.23 1.249-1.467 1.249-2.75zm.5-8c0-1.333-.667-2-2-2s-2 .667-2 2 .667 2 2 2 2-.667 2-2zm-96.25-23.08c-2.944-1.715-1.969-2.452 2.75-2.076 4.091.325 4.5.155 4.5-1.866 0-1.882-.235-2.028-1.53-.953-2.158 1.79-6.231-.226-7.05-3.491-.956-3.805.338-7.466 3.078-8.715 1.857-.846 2.81-.809 3.972.156 1.044.867 1.53.913 1.53.147 0-.617.9-1.122 2-1.122 1.822 0 2 .667 2 7.5 0 6.167-.356 7.856-2 9.5-2.148 2.148-6.413 2.572-9.25.92zm6.75-10.934c0-2.82-.382-3.486-2-3.486-1.332 0-2.11.776-2.33 2.323-.475 3.362.564 5.375 2.577 4.987 1.27-.245 1.753-1.296 1.753-3.824zm-297.121 5.25c-2.408-2.408-1.325-4.462 3.121-5.919C60.024 17.163 61.22 14 58.132 14c-1.108 0-2.292.45-2.632 1-.34.55-1.379.985-2.309.967-1.37-.027-1.244-.406.67-2 2.528-2.106 5.735-2.508 8.096-1.015.882.558 1.682 3.27 2.026 6.866l.568 5.944-4.897-.074c-2.735-.041-5.505-.682-6.275-1.452zm6.459-3.137c.267-1.877-.015-2.245-1.332-1.74-.918.353-1.858.641-2.088.641-.23 0-.418.933-.418 2.073 0 2.946 3.404 2.081 3.838-.974zM99 16.5c0-8.833.14-9.5 2-9.5 1.632 0 2 .667 2 3.622 0 3.138.205 3.453 1.53 2.353 1.163-.965 2.115-1.002 3.972-.156 2.74 1.249 4.034 4.91 3.079 8.715-.82 3.265-4.893 5.282-7.051 3.49-1.044-.866-1.53-.912-1.53-.146 0 .617-.9 1.122-2 1.122-1.86 0-2-.667-2-9.5zm8.5 2.486c0-2.82-.382-3.486-2-3.486-1.332 0-2.11.776-2.33 2.323-.475 3.362.564 5.375 2.577 4.987 1.27-.245 1.753-1.296 1.753-3.824zm44.328 5.978c-2.204-1.286-3.163-5.952-1.905-9.262 1.336-3.514 5.253-4.472 8.797-2.15 2.528 1.656 2.577 1.819.743 2.474-1.08.386-2.255.247-2.612-.308-1.287-2-3.851.185-3.851 3.282s2.564 5.283 3.85 3.282c.358-.555 1.515-.7 2.571-.322 1.816.649 1.79.78-.472 2.363-2.698 1.89-4.676 2.067-7.12.64zM197 24c-1.111-1.111-2-3.333-2-5 0-3.078 2.97-7 5.3-7 .715 0 1.84.54 2.5 1.2.933.933 1.2.378 1.2-2.5 0-3.033.36-3.7 2-3.7 1.86 0 2 .667 2 9.5s-.14 9.5-2 9.5c-1.1 0-2-.54-2-1.2 0-.933-.267-.933-1.2 0-1.73 1.73-3.517 1.483-5.8-.8zm6.5-5.014c0-2.82-.382-3.486-2-3.486-1.332 0-2.11.776-2.33 2.323-.475 3.362.564 5.375 2.577 4.987 1.27-.245 1.753-1.296 1.753-3.824zm44.964 5.611c-2.672-1.954-2.672-9.24 0-11.194 3.77-2.757 7.92-1 9.09 3.847.643 2.668.538 2.75-3.529 2.75-2.911 0-4.063.382-3.77 1.25.23.688 1.28 1.315 2.333 1.394 1.051.079 2.812.206 3.912.282 1.974.136 1.975.157.059 1.606-2.447 1.85-5.619 1.876-8.095.065zm5.286-7.847c-.23-.687-1.017-1.25-1.75-1.25-.733 0-1.52.563-1.75 1.25-.248.744.461 1.25 1.75 1.25s1.998-.506 1.75-1.25zM292 20.5c0-3.025-.45-5.5-1-5.5s-1-.675-1-1.5.398-1.5.883-1.5c.486 0 1.114-.88 1.395-1.954.615-2.351 5.37-3.799 7.028-2.14.88.88.62 1.3-1.073 1.743-2.51.657-3.039 2.351-.733 2.351.825 0 1.5.675 1.5 1.5s-.675 1.5-1.5 1.5c-1.152 0-1.5 1.278-1.5 5.5 0 4.833-.242 5.5-2 5.5s-2-.667-2-5.5zm97-4c0-8.833.14-9.5 2-9.5 1.558 0 2 .667 2 3.02 0 2.67.271 2.95 2.356 2.427 3.742-.94 5.644 1.8 5.644 8.124 0 4.762-.246 5.429-2 5.429-1.76 0-2-.667-2-5.573 0-4.768-.253-5.526-1.75-5.24-1.353.256-1.819 1.522-2.052 5.572-.255 4.424-.606 5.241-2.25 5.241-1.794 0-1.948-.752-1.948-9.5z" fill="#828282"/></svg>